<svg id="OBJECTS" xmlns="http://www.w3.org/2000/svg" viewBox="0 0 86.92 59.38"><defs><style>.cls-1{fill:#e6e7e8;}.cls-2,.cls-3,.cls-4{fill:#25374f;}.cls-3,.cls-6{opacity:0.2;}.cls-4,.cls-7{opacity:0.5;}.cls-5,.cls-6,.cls-7{fill:#20bcc8;}.cls-8{fill:#fff;opacity:0.3;}</style></defs><path class="cls-1" d="M293.17,374.7V351.9h2.45v-5a12.85,12.85,0,0,0-12.85-12.85H221.56a12.85,12.85,0,0,0-12.86,12.85v5h2.45v22.8H208.7v5.88a12.85,12.85,0,0,0,12.86,12.85h61.21a12.85,12.85,0,0,0,12.85-12.85V374.7Z" transform="translate(-208.7 -334.06)"/><path class="cls-2" d="M240.19,353.3a9.44,9.44,0,1,1-9.43-9.44A9.43,9.43,0,0,1,240.19,353.3Z" transform="translate(-208.7 -334.06)"/><path class="cls-3" d="M285.41,355.32a9.44,9.44,0,1,1-9.44-9.44A9.43,9.43,0,0,1,285.41,355.32Z" transform="translate(-208.7 -334.06)"/><path class="cls-4" d="M262.93,349.23a9.44,9.44,0,1,1-9.44-9.44A9.44,9.44,0,0,1,262.93,349.23Z" transform="translate(-208.7 -334.06)"/><path class="cls-5" d="M238.55,376.24a9.44,9.44,0,1,1-9.44-9.44A9.44,9.44,0,0,1,238.55,376.24Z" transform="translate(-208.7 -334.06)"/><path class="cls-6" d="M283.77,378.26a9.44,9.44,0,1,1-9.44-9.44A9.44,9.44,0,0,1,283.77,378.26Z" transform="translate(-208.7 -334.06)"/><path class="cls-7" d="M261.29,372.17a9.44,9.44,0,1,1-9.44-9.44A9.44,9.44,0,0,1,261.29,372.17Z" transform="translate(-208.7 -334.06)"/><path class="cls-8" d="M230.76,343.86a9.43,9.43,0,0,0-7.6,15l13.18-13.18A9.4,9.4,0,0,0,230.76,343.86Z" transform="translate(-208.7 -334.06)"/><path class="cls-8" d="M276,345.88a9.43,9.43,0,0,0-6.8,16l13.33-13.33A9.39,9.39,0,0,0,276,345.88Z" transform="translate(-208.7 -334.06)"/><path class="cls-8" d="M274.33,368.82a9.43,9.43,0,0,0-7.14,15.6l13.3-13.3A9.37,9.37,0,0,0,274.33,368.82Z" transform="translate(-208.7 -334.06)"/><path class="cls-8" d="M253.49,339.79a9.42,9.42,0,0,0-7.61,15l13.18-13.17A9.34,9.34,0,0,0,253.49,339.79Z" transform="translate(-208.7 -334.06)"/><path class="cls-8" d="M251.85,362.73a9.44,9.44,0,0,0-7.38,15.32l13.26-13.25A9.39,9.39,0,0,0,251.85,362.73Z" transform="translate(-208.7 -334.06)"/><path class="cls-8" d="M229.11,366.8a9.43,9.43,0,0,0-7,15.74l13.31-13.31A9.4,9.4,0,0,0,229.11,366.8Z" transform="translate(-208.7 -334.06)"/></svg>